# xmcd
#
# Track frame offsets:
#	150
#	4287
#	27127
#	66990
#	77265
#	106517
#	132510
#	164112
#	205000
#	219772
#	237697
#	249552
#	278800
#
# Disc length: 4247
#
# Revision: 1
# Processed by: cddbd v1.5.1PL0 Copyright (c) Steve Scherf et al.
# Submitted via: EasyCDDAExtractor 5.0.2.1
# Normalized: r0:DSETVAR1
#
DISCID=af10950d
DTITLE=Various Artist - The Inner Ear Report - Editor's Selection
DYEAR=1998
DGENRE=Blues
TTITLE0=Ray Brown, John Clayton, Jr., Christian McBride - Superbass Theme
TTITLE1=Sammy Cahn, Julie Styne - Time After Time
TTITLE2=The Jimmy McGriff and Hank Crawford Quartet - Frame for the Blues
TTITLE3=Will Hudson,Irving Mills,Mirchell Parish - The Organ Grinder Song
TTITLE4=Diana Krall - Boulevard of Broken Dreams
TTITLE5=Carl Weathersby - The Blues Follow Me Around
TTITLE6=Melvin Taylor and the Slack Bank - Dirty Pool
TTITLE7=Patricia Barber - Nardis
TTITLE8=Bonnie Raitt and Was (Was Not) - Baby Me
TTITLE9=Peter Gabriel - Summertime
TTITLE10=Weiner Kammerorchester, GyOrgy Fischer - Im Uomini, In Soldati
TTITLE11=The Wrik Westberg Vocal Ensemble - Num Komm Der Heiden Heiland
TTITLE12=Gary Karr, Harmon Lewis - Albinoni Giazotto Adagio in G Minor
EXTD=
EXTT0=
EXTT1=
EXTT2=
EXTT3=
EXTT4=
EXTT5=
EXTT6=
EXTT7=
EXTT8=
EXTT9=
EXTT10=
EXTT11=
EXTT12=
PLAYORDER=
